<?xml version="1.0" encoding="UTF-8"?>
<svg xmlns="http://www.w3.org/2000/svg" xmlns:xlink="http://www.w3.org/1999/xlink" width="45px" height="45px" viewBox="0 0 45 45" version="1.1">
<g id="surface1">
<path style=" stroke:none;fill-rule:evenodd;fill:rgb(100%,100%,100%);fill-opacity:1;" d="M 23.40625 25.976562 C 22.90625 26.476562 22.09375 26.476562 21.59375 25.976562 L 15.171875 19.554688 C 14.667969 19.054688 14.667969 18.242188 15.171875 17.738281 C 15.671875 17.238281 16.484375 17.238281 16.988281 17.738281 L 22.5 23.253906 L 28.011719 17.738281 C 28.515625 17.238281 29.328125 17.238281 29.828125 17.738281 C 30.332031 18.242188 30.332031 19.054688 29.828125 19.554688 Z M 23.40625 25.976562 "/>
<path style="fill-rule:evenodd;fill:rgb(100%,100%,100%);fill-opacity:1;stroke-width:0.00024;stroke-linecap:butt;stroke-linejoin:miter;stroke:rgb(100%,100%,100%);stroke-opacity:1;stroke-miterlimit:4;" d="M 12.705667 14.707084 C 12.316334 15.096417 11.683667 15.096417 11.294334 14.707084 L 6.293834 9.706584 C 5.901459 9.31725 5.901459 8.684584 6.293834 8.292209 C 6.683167 7.902875 7.315834 7.902875 7.708209 8.292209 L 12 12.587042 L 16.291792 8.292209 C 16.684167 7.902875 17.316834 7.902875 17.706167 8.292209 C 18.098542 8.684584 18.098542 9.31725 17.706167 9.706584 Z M 12.705667 14.707084 " transform="matrix(1.284247,0,0,1.284247,7.089041,7.089041)"/>
</g>
</svg>
