<?xml version="1.0" encoding="UTF-8"?>
<svg xmlns="http://www.w3.org/2000/svg" xmlns:xlink="http://www.w3.org/1999/xlink" width="20px" height="20px" viewBox="0 0 20 20" version="1.1">
<g id="surface1">
<path style="fill:none;stroke-width:1.5;stroke-linecap:round;stroke-linejoin:round;stroke:rgb(100%,100%,100%);stroke-opacity:1;stroke-miterlimit:4;" d="M 7.5 12 C 7.495117 10.62793 7.875977 9.280273 8.598633 8.113281 C 9.301758 6.975586 10.327148 6.077148 11.542969 5.535156 C 12.729492 5.00293 14.057617 4.866211 15.327148 5.134766 L 15.507812 5.173828 C 14.707031 5.710938 14.023438 6.414062 13.515625 7.234375 C 12.792969 8.401367 12.412109 9.749023 12.416992 11.125977 C 12.407227 12.957031 13.09082 14.724609 14.335938 16.077148 C 15.185547 16.995117 16.28418 17.644531 17.5 17.952148 C 16.479492 18.630859 15.27832 18.99707 14.047852 19.001953 C 12.290039 18.992188 10.610352 18.245117 9.418945 16.951172 C 8.173828 15.603516 7.490234 13.835938 7.5 12 Z M 7.5 12 " transform="matrix(0.8,0,0,0.8,0,0.4)"/>
</g>
</svg>
