<?xml version="1.0" encoding="UTF-8"?>
<svg xmlns="http://www.w3.org/2000/svg" xmlns:xlink="http://www.w3.org/1999/xlink" width="20px" height="20px" viewBox="0 0 20 20" version="1.1">
<g id="surface1">
<path style=" stroke:none;fill-rule:nonzero;fill:rgb(100%,100%,100%);fill-opacity:1;" d="M 10 14.792969 C 9.050781 14.792969 8.125 14.511719 7.339844 13.984375 C 6.550781 13.457031 5.9375 12.710938 5.574219 11.832031 C 5.210938 10.957031 5.117188 9.996094 5.300781 9.066406 C 5.484375 8.136719 5.941406 7.28125 6.613281 6.613281 C 7.28125 5.941406 8.136719 5.484375 9.066406 5.300781 C 9.996094 5.117188 10.957031 5.210938 11.832031 5.574219 C 12.710938 5.9375 13.457031 6.550781 13.984375 7.339844 C 14.511719 8.125 14.792969 9.050781 14.792969 10 C 14.789062 11.269531 14.285156 12.488281 13.386719 13.386719 C 12.488281 14.285156 11.269531 14.789062 10 14.792969 Z M 10 6.457031 C 9.300781 6.457031 8.613281 6.667969 8.03125 7.054688 C 7.449219 7.445312 6.996094 7.996094 6.726562 8.644531 C 6.460938 9.292969 6.390625 10.003906 6.527344 10.691406 C 6.664062 11.378906 7 12.007812 7.496094 12.503906 C 7.992188 13 8.621094 13.335938 9.308594 13.472656 C 9.996094 13.609375 10.707031 13.539062 11.355469 13.273438 C 12.003906 13.003906 12.554688 12.550781 12.945312 11.96875 C 13.332031 11.386719 13.542969 10.699219 13.542969 10 C 13.539062 9.0625 13.164062 8.160156 12.5 7.5 C 11.839844 6.835938 10.9375 6.460938 10 6.457031 Z M 10 6.457031 "/>
<path style=" stroke:none;fill-rule:nonzero;fill:rgb(100%,100%,100%);fill-opacity:1;" d="M 10 4.167969 C 9.835938 4.164062 9.675781 4.097656 9.558594 3.980469 C 9.445312 3.863281 9.378906 3.707031 9.375 3.542969 L 9.375 2.292969 C 9.375 2.125 9.441406 1.96875 9.558594 1.851562 C 9.675781 1.734375 9.835938 1.667969 10 1.667969 C 10.164062 1.667969 10.324219 1.734375 10.441406 1.851562 C 10.558594 1.96875 10.625 2.125 10.625 2.292969 L 10.625 3.542969 C 10.621094 3.707031 10.554688 3.863281 10.441406 3.980469 C 10.324219 4.097656 10.164062 4.164062 10 4.167969 Z M 10 4.167969 "/>
<path style=" stroke:none;fill-rule:nonzero;fill:rgb(100%,100%,100%);fill-opacity:1;" d="M 10 18.332031 C 9.835938 18.332031 9.675781 18.265625 9.558594 18.148438 C 9.445312 18.03125 9.378906 17.875 9.375 17.707031 L 9.375 16.457031 C 9.375 16.292969 9.441406 16.132812 9.558594 16.015625 C 9.675781 15.898438 9.835938 15.832031 10 15.832031 C 10.164062 15.832031 10.324219 15.898438 10.441406 16.015625 C 10.558594 16.132812 10.625 16.292969 10.625 16.457031 L 10.625 17.707031 C 10.621094 17.875 10.554688 18.03125 10.441406 18.148438 C 10.324219 18.265625 10.164062 18.332031 10 18.332031 Z M 10 18.332031 "/>
<path style=" stroke:none;fill-rule:nonzero;fill:rgb(100%,100%,100%);fill-opacity:1;" d="M 17.707031 10.625 L 16.457031 10.625 C 16.292969 10.625 16.132812 10.558594 16.015625 10.441406 C 15.898438 10.324219 15.832031 10.164062 15.832031 10 C 15.832031 9.835938 15.898438 9.675781 16.015625 9.558594 C 16.132812 9.441406 16.292969 9.375 16.457031 9.375 L 17.707031 9.375 C 17.875 9.375 18.03125 9.441406 18.148438 9.558594 C 18.265625 9.675781 18.332031 9.835938 18.332031 10 C 18.332031 10.164062 18.265625 10.324219 18.148438 10.441406 C 18.03125 10.558594 17.875 10.625 17.707031 10.625 Z M 17.707031 10.625 "/>
<path style=" stroke:none;fill-rule:nonzero;fill:rgb(100%,100%,100%);fill-opacity:1;" d="M 3.542969 10.625 L 2.292969 10.625 C 2.125 10.625 1.96875 10.558594 1.851562 10.441406 C 1.734375 10.324219 1.667969 10.164062 1.667969 10 C 1.667969 9.835938 1.734375 9.675781 1.851562 9.558594 C 1.96875 9.441406 2.125 9.375 2.292969 9.375 L 3.542969 9.375 C 3.707031 9.375 3.867188 9.441406 3.984375 9.558594 C 4.101562 9.675781 4.167969 9.835938 4.167969 10 C 4.167969 10.164062 4.101562 10.324219 3.984375 10.441406 C 3.867188 10.558594 3.707031 10.625 3.542969 10.625 Z M 3.542969 10.625 "/>
<path style=" stroke:none;fill-rule:nonzero;fill:rgb(100%,100%,100%);fill-opacity:1;" d="M 5.417969 6.042969 C 5.257812 6.03125 5.105469 5.953125 5 5.832031 L 4.089844 5 C 4.03125 4.941406 3.984375 4.871094 3.953125 4.792969 C 3.921875 4.714844 3.902344 4.628906 3.902344 4.546875 C 3.902344 4.460938 3.921875 4.378906 3.953125 4.300781 C 3.984375 4.222656 4.03125 4.152344 4.089844 4.089844 C 4.152344 4.03125 4.222656 3.984375 4.300781 3.953125 C 4.378906 3.921875 4.460938 3.902344 4.546875 3.902344 C 4.628906 3.902344 4.714844 3.921875 4.792969 3.953125 C 4.871094 3.984375 4.941406 4.03125 5 4.089844 L 5.832031 5 C 5.9375 5.113281 5.992188 5.261719 5.992188 5.417969 C 5.992188 5.570312 5.9375 5.71875 5.832031 5.832031 C 5.726562 5.953125 5.578125 6.03125 5.417969 6.042969 Z M 5.417969 6.042969 "/>
<path style=" stroke:none;fill-rule:nonzero;fill:rgb(100%,100%,100%);fill-opacity:1;" d="M 15.464844 16.089844 C 15.382812 16.09375 15.304688 16.074219 15.226562 16.042969 C 15.152344 16.011719 15.082031 15.964844 15.023438 15.910156 L 14.167969 15 C 14.109375 14.882812 14.09375 14.753906 14.113281 14.625 C 14.136719 14.496094 14.199219 14.378906 14.289062 14.289062 C 14.378906 14.199219 14.496094 14.136719 14.625 14.113281 C 14.753906 14.09375 14.882812 14.109375 15 14.167969 L 15.910156 15 C 16.027344 15.117188 16.089844 15.277344 16.089844 15.441406 C 16.089844 15.605469 16.027344 15.765625 15.910156 15.882812 C 15.851562 15.945312 15.785156 15.996094 15.710938 16.03125 C 15.632812 16.070312 15.550781 16.089844 15.464844 16.089844 Z M 15.464844 16.089844 "/>
<path style=" stroke:none;fill-rule:nonzero;fill:rgb(100%,100%,100%);fill-opacity:1;" d="M 14.582031 6.042969 C 14.421875 6.03125 14.273438 5.953125 14.167969 5.832031 C 14.0625 5.71875 14.007812 5.570312 14.007812 5.417969 C 14.007812 5.261719 14.0625 5.113281 14.167969 5 L 15 4.089844 C 15.121094 3.972656 15.285156 3.902344 15.453125 3.902344 C 15.625 3.902344 15.789062 3.972656 15.910156 4.089844 C 16.027344 4.210938 16.097656 4.375 16.097656 4.546875 C 16.097656 4.714844 16.027344 4.878906 15.910156 5 L 15 5.832031 C 14.894531 5.953125 14.742188 6.03125 14.582031 6.042969 Z M 14.582031 6.042969 "/>
<path style=" stroke:none;fill-rule:nonzero;fill:rgb(100%,100%,100%);fill-opacity:1;" d="M 4.535156 16.089844 C 4.453125 16.09375 4.371094 16.074219 4.292969 16.042969 C 4.21875 16.011719 4.148438 15.964844 4.089844 15.910156 C 3.976562 15.792969 3.910156 15.632812 3.910156 15.464844 C 3.910156 15.300781 3.976562 15.140625 4.089844 15.023438 L 5 14.167969 C 5.117188 14.109375 5.246094 14.09375 5.375 14.113281 C 5.503906 14.136719 5.621094 14.199219 5.710938 14.289062 C 5.800781 14.378906 5.863281 14.496094 5.886719 14.625 C 5.90625 14.753906 5.890625 14.882812 5.832031 15 L 5 15.910156 C 4.9375 15.96875 4.867188 16.019531 4.785156 16.050781 C 4.707031 16.082031 4.621094 16.09375 4.535156 16.089844 Z M 4.535156 16.089844 "/>
</g>
</svg>
